<svg xmlns="http://www.w3.org/2000/svg" xmlns:xlink="http://www.w3.org/1999/xlink" x="0" y="0" width="965.5333251953125" height="395.066650390625" style="
        width:965.5333251953125px;
        height:395.066650390625px;
        background: #FFF;
        fill: none;
">
        
        
        <svg xmlns="http://www.w3.org/2000/svg" class="role-diagram-draw-area"><g class="shapes-region" style="stroke: black; fill: none;"><g class="composite-shape"><path class="real" d=" M457.84,47.85 C457.84,38.72 465.24,31.32 474.37,31.32 C483.5,31.32 490.9,38.72 490.9,47.85 C490.9,56.97 483.5,64.37 474.37,64.37 C465.24,64.37 457.84,56.97 457.84,47.85 Z" style="stroke-width: 1px; stroke: rgb(0, 0, 0); fill: none; fill-opacity: 1;"/></g><g class="composite-shape"><path class="real" d=" M597.47,98.18 C597.47,89.05 604.87,81.65 614,81.65 C623.13,81.65 630.53,89.05 630.53,98.18 C630.53,107.31 623.13,114.71 614,114.71 C604.87,114.71 597.47,107.31 597.47,98.18 Z" style="stroke-width: 1px; stroke: rgb(0, 0, 0); fill: none; fill-opacity: 1;"/></g><g class="composite-shape"><path class="real" d=" M344.12,103.38 C344.12,94.25 351.52,86.85 360.65,86.85 C369.78,86.85 377.18,94.25 377.18,103.38 C377.18,112.51 369.78,119.91 360.65,119.91 C351.52,119.91 344.12,112.51 344.12,103.38 Z" style="stroke-width: 1px; stroke: rgb(0, 0, 0); fill: none; fill-opacity: 1;"/></g><g class="arrow-line"><path class="connection real" stroke-dasharray="" d="  M458.91,53.08 L377.19,91.72" style="stroke: rgb(0, 0, 0); stroke-width: 1px; fill: none; fill-opacity: 1;"/><g stroke="#000" transform="matrix(0.9040079478731884,-0.4275156490493731,0.4275156490493731,0.9040079478731884,375.3825971887921,92.57290067740365)" style="stroke: rgb(0, 0, 0); stroke-width: 1px;"><path d=" M10.93,-3.29 Q4.96,-0.45 0,0 Q4.96,0.45 10.93,3.29"/></g></g><g class="arrow-line"><path class="connection real" stroke-dasharray="" d="  M490.42,55.87 L595.61,97.44" style="stroke: rgb(0, 0, 0); stroke-width: 1px; fill: none; fill-opacity: 1;"/><g stroke="#000" transform="matrix(-0.9299691079927492,-0.3676376724156139,0.3676376724156139,-0.9299691079927492,597.4736319661813,98.17897440201614)" style="stroke: rgb(0, 0, 0); stroke-width: 1px;"><path d=" M10.93,-3.29 Q4.96,-0.45 0,0 Q4.96,0.45 10.93,3.29"/></g></g><g class="composite-shape"><path class="real" d=" M412.11,163.5 C412.11,154.37 419.51,146.97 428.64,146.97 C437.77,146.97 445.17,154.37 445.17,163.5 C445.17,172.63 437.77,180.03 428.64,180.03 C419.51,180.03 412.11,172.63 412.11,163.5 Z" style="stroke-width: 1px; stroke: rgb(0, 0, 0); fill: none; fill-opacity: 1;"/></g><g class="composite-shape"><path class="real" d=" M257.62,162.19 C257.62,153.06 265.02,145.66 274.15,145.66 C283.27,145.66 290.67,153.06 290.67,162.19 C290.67,171.32 283.27,178.72 274.15,178.72 C265.02,178.72 257.62,171.32 257.62,162.19 Z" style="stroke-width: 1px; stroke: rgb(0, 0, 0); fill: none; fill-opacity: 1;"/></g><g class="composite-shape"><path class="real" d=" M648.71,163.01 C648.71,153.88 656.11,146.48 665.23,146.48 C674.36,146.48 681.76,153.88 681.76,163.01 C681.76,172.13 674.36,179.53 665.23,179.53 C656.11,179.53 648.71,172.13 648.71,163.01 Z" style="stroke-width: 1px; stroke: rgb(0, 0, 0); fill: none; fill-opacity: 1;"/></g><g class="composite-shape"><path class="real" d=" M550.53,168.31 C550.53,159.18 557.93,151.78 567.06,151.78 C576.19,151.78 583.59,159.18 583.59,168.31 C583.59,177.44 576.19,184.84 567.06,184.84 C557.93,184.84 550.53,177.44 550.53,168.31 Z" style="stroke-width: 1px; stroke: rgb(0, 0, 0); fill: none; fill-opacity: 1;"/></g><g class="composite-shape"><path class="real" d=" M199.28,233.49 C199.28,224.36 206.68,216.96 215.81,216.96 C224.94,216.96 232.34,224.36 232.34,233.49 C232.34,242.62 224.94,250.02 215.81,250.02 C206.68,250.02 199.28,242.62 199.28,233.49 Z" style="stroke-width: 1px; stroke: rgb(0, 0, 0); fill: none; fill-opacity: 1;"/></g><g class="composite-shape"><path class="real" d=" M309.86,232.14 C309.86,223.01 317.26,215.61 326.39,215.61 C335.52,215.61 342.92,223.01 342.92,232.14 C342.92,241.27 335.52,248.67 326.39,248.67 C317.26,248.67 309.86,241.27 309.86,232.14 Z" style="stroke-width: 1px; stroke: rgb(0, 0, 0); fill: none; fill-opacity: 1;"/></g><g class="composite-shape"><path class="real" d=" M370.5,234.48 C370.5,225.35 377.9,217.95 387.03,217.95 C396.16,217.95 403.56,225.35 403.56,234.48 C403.56,243.61 396.16,251.01 387.03,251.01 C377.9,251.01 370.5,243.61 370.5,234.48 Z" style="stroke-width: 1px; stroke: rgb(0, 0, 0); fill: none; fill-opacity: 1;"/></g><g class="composite-shape"><path class="real" d=" M455.5,236.48 C455.5,227.35 462.9,219.95 472.03,219.95 C481.16,219.95 488.56,227.35 488.56,236.48 C488.56,245.61 481.16,253.01 472.03,253.01 C462.9,253.01 455.5,245.61 455.5,236.48 Z" style="stroke-width: 1px; stroke: rgb(0, 0, 0); fill: none; fill-opacity: 1;"/></g><g class="composite-shape"><path class="real" d=" M517.53,235.31 C517.53,226.18 524.93,218.78 534.06,218.78 C543.19,218.78 550.59,226.18 550.59,235.31 C550.59,244.44 543.19,251.84 534.06,251.84 C524.93,251.84 517.53,244.44 517.53,235.31 Z" style="stroke-width: 1px; stroke: rgb(0, 0, 0); fill: none; fill-opacity: 1;"/></g><g class="composite-shape"><path class="real" d=" M583.53,236.31 C583.53,227.18 590.93,219.78 600.06,219.78 C609.19,219.78 616.59,227.18 616.59,236.31 C616.59,245.44 609.19,252.84 600.06,252.84 C590.93,252.84 583.53,245.44 583.53,236.31 Z" style="stroke-width: 1px; stroke: rgb(0, 0, 0); fill: none; fill-opacity: 1;"/></g><g class="composite-shape"><path class="real" d=" M543.53,314.31 C543.53,305.18 550.93,297.78 560.06,297.78 C569.19,297.78 576.59,305.18 576.59,314.31 C576.59,323.44 569.19,330.84 560.06,330.84 C550.93,330.84 543.53,323.44 543.53,314.31 Z" style="stroke-width: 1px; stroke: rgb(0, 0, 0); fill: none; fill-opacity: 1;"/></g><g class="composite-shape"><path class="real" d=" M624.53,315.31 C624.53,306.18 631.93,298.78 641.06,298.78 C650.19,298.78 657.59,306.18 657.59,315.31 C657.59,324.44 650.19,331.84 641.06,331.84 C631.93,331.84 624.53,324.44 624.53,315.31 Z" style="stroke-width: 1px; stroke: rgb(0, 0, 0); fill: none; fill-opacity: 1;"/></g><g class="composite-shape"><path class="real" d=" M337.53,306.31 C337.53,297.18 344.93,289.78 354.06,289.78 C363.19,289.78 370.59,297.18 370.59,306.31 C370.59,315.44 363.19,322.84 354.06,322.84 C344.93,322.84 337.53,315.44 337.53,306.31 Z" style="stroke-width: 1px; stroke: rgb(0, 0, 0); fill: none; fill-opacity: 1;"/></g><g class="composite-shape"><path class="real" d=" M418.53,307.31 C418.53,298.18 425.93,290.78 435.06,290.78 C444.19,290.78 451.59,298.18 451.59,307.31 C451.59,316.44 444.19,323.84 435.06,323.84 C425.93,323.84 418.53,316.44 418.53,307.31 Z" style="stroke-width: 1px; stroke: rgb(0, 0, 0); fill: none; fill-opacity: 1;"/></g><g class="composite-shape"><path class="real" d=" M156.53,296.31 C156.53,287.18 163.93,279.78 173.06,279.78 C182.19,279.78 189.59,287.18 189.59,296.31 C189.59,305.44 182.19,312.84 173.06,312.84 C163.93,312.84 156.53,305.44 156.53,296.31 Z" style="stroke-width: 1px; stroke: rgb(0, 0, 0); fill: none; fill-opacity: 1;"/></g><g class="composite-shape"><path class="real" d=" M237.53,297.31 C237.53,288.18 244.93,280.78 254.06,280.78 C263.19,280.78 270.59,288.18 270.59,297.31 C270.59,306.44 263.19,313.84 254.06,313.84 C244.93,313.84 237.53,306.44 237.53,297.31 Z" style="stroke-width: 1px; stroke: rgb(0, 0, 0); fill: none; fill-opacity: 1;"/></g><g class="arrow-line"><path class="connection real" stroke-dasharray="" d="  M349.33,114.82 L288.99,155.69" style="stroke: rgb(0, 0, 0); stroke-width: 1px; fill: none; fill-opacity: 1;"/><g stroke="#000" transform="matrix(0.8279624720472089,-0.5607835098159315,0.5607835098159315,0.8279624720472089,287.33331298828125,156.81666564941406)" style="stroke: rgb(0, 0, 0); stroke-width: 1px;"><path d=" M10.93,-3.29 Q4.96,-0.45 0,0 Q4.96,0.45 10.93,3.29"/></g></g><g class="arrow-line"><path class="connection real" stroke-dasharray="" d="  M375.42,115 L413,152.59" style="stroke: rgb(0, 0, 0); stroke-width: 1px; fill: none; fill-opacity: 1;"/><g stroke="#000" transform="matrix(-0.7071067811865477,-0.7071067811865475,0.7071067811865475,-0.7071067811865477,414.41668701171875,153.99999999999994)" style="stroke: rgb(0, 0, 0); stroke-width: 1px;"><path d=" M10.93,-3.29 Q4.96,-0.45 0,0 Q4.96,0.45 10.93,3.29"/></g></g><g class="arrow-line"><path class="connection real" stroke-dasharray="" d="  M264.42,176 L223.78,219.54" style="stroke: rgb(0, 0, 0); stroke-width: 1px; fill: none; fill-opacity: 1;"/><g stroke="#000" transform="matrix(0.6823812024608386,-0.7309965078768161,0.7309965078768161,0.6823812024608386,222.41668701171875,221)" style="stroke: rgb(0, 0, 0); stroke-width: 1px;"><path d=" M10.93,-3.29 Q4.96,-0.45 0,0 Q4.96,0.45 10.93,3.29"/></g></g><g class="arrow-line"><path class="connection real" stroke-dasharray="" d="  M286.42,175 L320.14,215.46" style="stroke: rgb(0, 0, 0); stroke-width: 1px; fill: none; fill-opacity: 1;"/><g stroke="#000" transform="matrix(-0.6402437805056022,-0.7681717916741634,0.7681717916741634,-0.6402437805056022,321.41668701171875,217)" style="stroke: rgb(0, 0, 0); stroke-width: 1px;"><path d=" M10.93,-3.29 Q4.96,-0.45 0,0 Q4.96,0.45 10.93,3.29"/></g></g><g class="arrow-line"><path class="connection real" stroke-dasharray="" d="  M418.42,175 L388.21,216.33" style="stroke: rgb(0, 0, 0); stroke-width: 1px; fill: none; fill-opacity: 1;"/><g stroke="#000" transform="matrix(0.5900421591634808,-0.8073724359982186,0.8073724359982186,0.5900421591634808,387.0272270458185,217.9476410758428)" style="stroke: rgb(0, 0, 0); stroke-width: 1px;"><path d=" M10.93,-3.29 Q4.96,-0.45 0,0 Q4.96,0.45 10.93,3.29"/></g></g><g class="arrow-line"><path class="connection real" stroke-dasharray="" d="  M439.42,176 L470.84,218.34" style="stroke: rgb(0, 0, 0); stroke-width: 1px; fill: none; fill-opacity: 1;"/><g stroke="#000" transform="matrix(-0.5959446024825176,-0.80302554801946,0.80302554801946,-0.5959446024825176,472.0272270458185,219.94764107584274)" style="stroke: rgb(0, 0, 0); stroke-width: 1px;"><path d=" M10.93,-3.29 Q4.96,-0.45 0,0 Q4.96,0.45 10.93,3.29"/></g></g><g class="arrow-line"><path class="connection real" stroke-dasharray="" d="  M605.42,114 L568.49,150.38" style="stroke: rgb(0, 0, 0); stroke-width: 1px; fill: none; fill-opacity: 1;"/><g stroke="#000" transform="matrix(0.7123935948500394,-0.7017801407967014,0.7017801407967014,0.7123935948500394,567.0603886103775,151.78231182849174)" style="stroke: rgb(0, 0, 0); stroke-width: 1px;"><path d=" M10.93,-3.29 Q4.96,-0.45 0,0 Q4.96,0.45 10.93,3.29"/></g></g><g class="arrow-line"><path class="connection real" stroke-dasharray="" d="  M623.42,113 L658.9,143.69" style="stroke: rgb(0, 0, 0); stroke-width: 1px; fill: none; fill-opacity: 1;"/><g stroke="#000" transform="matrix(-0.7563103802514717,-0.6542129689358613,0.6542129689358613,-0.7563103802514717,660.4166870117188,145)" style="stroke: rgb(0, 0, 0); stroke-width: 1px;"><path d=" M10.93,-3.29 Q4.96,-0.45 0,0 Q4.96,0.45 10.93,3.29"/></g></g><g class="arrow-line"><path class="connection real" stroke-dasharray="" d="  M554.42,179 L534.97,217" style="stroke: rgb(0, 0, 0); stroke-width: 1px; fill: none; fill-opacity: 1;"/><g stroke="#000" transform="matrix(0.45554490723351604,-0.8902128046111263,0.8902128046111263,0.45554490723351604,534.0603886103775,218.78231182849174)" style="stroke: rgb(0, 0, 0); stroke-width: 1px;"><path d=" M10.93,-3.29 Q4.96,-0.45 0,0 Q4.96,0.45 10.93,3.29"/></g></g><g class="arrow-line"><path class="connection real" stroke-dasharray="" d="  M580.42,181 L599.16,218" style="stroke: rgb(0, 0, 0); stroke-width: 1px; fill: none; fill-opacity: 1;"/><g stroke="#000" transform="matrix(-0.45181200698065593,-0.8921131712670269,0.8921131712670269,-0.45181200698065593,600.0603886103775,219.78231182849174)" style="stroke: rgb(0, 0, 0); stroke-width: 1px;"><path d=" M10.93,-3.29 Q4.96,-0.45 0,0 Q4.96,0.45 10.93,3.29"/></g></g><g class="arrow-line"><path class="connection real" stroke-dasharray="" d="  M205.42,247 L174.47,278.36" style="stroke: rgb(0, 0, 0); stroke-width: 1px; fill: none; fill-opacity: 1;"/><g stroke="#000" transform="matrix(0.7025257726943818,-0.7116583019259748,0.7116583019259748,0.7025257726943818,173.0603886103774,279.78231182849174)" style="stroke: rgb(0, 0, 0); stroke-width: 1px;"><path d=" M10.93,-3.29 Q4.96,-0.45 0,0 Q4.96,0.45 10.93,3.29"/></g></g><g class="arrow-line"><path class="connection real" stroke-dasharray="" d="  M226.42,249 L252.75,279.27" style="stroke: rgb(0, 0, 0); stroke-width: 1px; fill: none; fill-opacity: 1;"/><g stroke="#000" transform="matrix(-0.656322432357181,-0.7544805264450194,0.7544805264450194,-0.656322432357181,254.0603886103774,280.78231182849174)" style="stroke: rgb(0, 0, 0); stroke-width: 1px;"><path d=" M10.93,-3.29 Q4.96,-0.45 0,0 Q4.96,0.45 10.93,3.29"/></g></g><g class="arrow-line"><path class="connection real" stroke-dasharray="" d="  M376.42,248 L355,288.02" style="stroke: rgb(0, 0, 0); stroke-width: 1px; fill: none; fill-opacity: 1;"/><g stroke="#000" transform="matrix(0.47178150268530017,-0.8817154947736827,0.8817154947736827,0.47178150268530017,354.0603886103774,289.78231182849174)" style="stroke: rgb(0, 0, 0); stroke-width: 1px;"><path d=" M10.93,-3.29 Q4.96,-0.45 0,0 Q4.96,0.45 10.93,3.29"/></g></g><g class="arrow-line"><path class="connection real" stroke-dasharray="" d="  M398.42,247 L433.78,289.25" style="stroke: rgb(0, 0, 0); stroke-width: 1px; fill: none; fill-opacity: 1;"/><g stroke="#000" transform="matrix(-0.6418512303564489,-0.7668291844276095,0.7668291844276095,-0.6418512303564489,435.0603886103774,290.78231182849174)" style="stroke: rgb(0, 0, 0); stroke-width: 1px;"><path d=" M10.93,-3.29 Q4.96,-0.45 0,0 Q4.96,0.45 10.93,3.29"/></g></g><g class="arrow-line"><path class="connection real" stroke-dasharray="" d="  M585.42,248 L560.97,296" style="stroke: rgb(0, 0, 0); stroke-width: 1px; fill: none; fill-opacity: 1;"/><g stroke="#000" transform="matrix(0.45383498285062707,-0.8910857469070925,0.8910857469070925,0.45383498285062707,560.0603886103775,297.78231182849174)" style="stroke: rgb(0, 0, 0); stroke-width: 1px;"><path d=" M10.93,-3.29 Q4.96,-0.45 0,0 Q4.96,0.45 10.93,3.29"/></g></g><g class="arrow-line"><path class="connection real" stroke-dasharray="" d="  M612.42,250 L640.05,297.06" style="stroke: rgb(0, 0, 0); stroke-width: 1px; fill: none; fill-opacity: 1;"/><g stroke="#000" transform="matrix(-0.5063348073531333,-0.8623369775573035,0.8623369775573035,-0.5063348073531333,641.0603886103775,298.78231182849174)" style="stroke: rgb(0, 0, 0); stroke-width: 1px;"><path d=" M10.93,-3.29 Q4.96,-0.45 0,0 Q4.96,0.45 10.93,3.29"/></g></g><g class="arrow-line"><path class="connection real" stroke-dasharray="" d="  M474.37,31.32 C449.67,2.43 349.45,28.6 360.29,85.13" style="stroke: rgb(126, 211, 33); stroke-width: 1px; fill: none; fill-opacity: 1; stroke-opacity: 1;"/><g stroke="rgb(126,211,33)" transform="matrix(-0.22342024053238652,-0.9747222148491592,0.9747222148491592,-0.22342024053238652,360.64981040745397,86.85389264696892)" style="stroke: rgb(126, 211, 33); stroke-width: 1px;" stroke-opacity="1"><path d=" M10.93,-3.29 Q4.96,-0.45 0,0 Q4.96,0.45 10.93,3.29"/></g></g><g class="arrow-line"><path class="connection real" stroke-dasharray="" d="  M360.65,86.85 C335.95,57.96 262.4,87.34 273.77,143.94" style="stroke: rgb(126, 211, 33); stroke-opacity: 1; stroke-width: 1px; fill: none; fill-opacity: 1;"/><g stroke="rgb(126,211,33)" stroke-opacity="1" transform="matrix(-0.22342024053238652,-0.9747222148491592,0.9747222148491592,-0.22342024053238652,274.1456386243595,145.66385175134644)" style="stroke: rgb(126, 211, 33); stroke-width: 1px;"><path d=" M10.93,-3.29 Q4.96,-0.45 0,0 Q4.96,0.45 10.93,3.29"/></g></g><g class="arrow-line"><path class="connection real" stroke-dasharray="" d="  M274.15,145.66 C224.91,129.3 203.02,158.65 215.43,215.24" style="stroke: rgb(126, 211, 33); stroke-opacity: 1; stroke-width: 1px; fill: none; fill-opacity: 1;"/><g stroke="rgb(126,211,33)" stroke-opacity="1" transform="matrix(-0.22342024053238652,-0.9747222148491592,0.9747222148491592,-0.22342024053238652,215.81226180172763,216.964168683073)" style="stroke: rgb(126, 211, 33); stroke-width: 1px;"><path d=" M10.93,-3.29 Q4.96,-0.45 0,0 Q4.96,0.45 10.93,3.29"/></g></g><g class="arrow-line"><path class="connection real" stroke-dasharray="" d="  M215.81,216.96 C155.03,209.21 146.58,233.64 163.88,279.73" style="stroke: rgb(126, 211, 33); stroke-opacity: 1; stroke-width: 1px; fill: none; fill-opacity: 1;"/><g stroke="rgb(126,211,33)" stroke-opacity="1" transform="matrix(-0.3577161001751689,-0.9338303869951269,0.9338303869951269,-0.3577161001751689,164.41668701171875,281.1333312988281)" style="stroke: rgb(126, 211, 33); stroke-width: 1px;"><path d=" M10.93,-3.29 Q4.96,-0.45 0,0 Q4.96,0.45 10.93,3.29"/></g></g><g class="arrow-line"><path class="connection real" stroke-dasharray="" d="  M189.59,296.31 C227.66,287.34 219.97,267.63 216.25,251.96" style="stroke: rgb(208, 2, 27); stroke-opacity: 1; stroke-width: 1px; fill: none; fill-opacity: 1;"/><g stroke="rgb(208,2,27)" stroke-opacity="1" transform="matrix(0.21081299374532908,0.9775264097036621,-0.9775264097036621,0.21081299374532908,215.81226180172763,250.02204189590327)" style="stroke: rgb(208, 2, 27); stroke-width: 1px;"><path d=" M10.93,-3.29 Q4.96,-0.45 0,0 Q4.96,0.45 10.93,3.29"/></g></g><g class="arrow-line"><path class="connection real" stroke-dasharray="" d="  M232.34,233.49 C271.01,224.38 275.06,263.91 268.76,286.28" style="stroke: rgb(126, 211, 33); stroke-opacity: 1; stroke-width: 1px; fill: none; fill-opacity: 1;"/><g stroke="rgb(126,211,33)" stroke-opacity="1" transform="matrix(0.30320159128856744,-0.9529264373707346,0.9529264373707346,0.30320159128856744,268.25,287.96665954589844)" style="stroke: rgb(126, 211, 33); stroke-width: 1px;"><path d=" M10.93,-3.29 Q4.96,-0.45 0,0 Q4.96,0.45 10.93,3.29"/></g></g><g class="arrow-line"><path class="connection real" stroke-dasharray="" d="  M230.58,226.98 C269.25,217.87 282.9,200.86 274.81,180.31" style="stroke: rgb(208, 2, 27); stroke-opacity: 1; stroke-width: 1px; fill: none; fill-opacity: 1;"/><g stroke="rgb(208,2,27)" stroke-opacity="1" transform="matrix(0.40577975766620006,0.9139708902740612,-0.9139708902740612,0.40577975766620006,274.1456386243595,178.7217249641767)" style="stroke: rgb(208, 2, 27); stroke-width: 1px;"><path d=" M10.93,-3.29 Q4.96,-0.45 0,0 Q4.96,0.45 10.93,3.29"/></g></g><g class="arrow-line"><path class="connection real" stroke-dasharray="" d="  M289.58,169.98 C328.25,160.87 333.16,191.99 326.89,213.94" style="stroke: rgb(126, 211, 33); stroke-opacity: 1; stroke-width: 1px; fill: none; fill-opacity: 1;"/><g stroke="rgb(126,211,33)" stroke-opacity="1" transform="matrix(0.30320159128856744,-0.9529264373707346,0.9529264373707346,0.30320159128856744,326.3908344048826,215.60879854009943)" style="stroke: rgb(126, 211, 33); stroke-width: 1px;"><path d=" M10.93,-3.29 Q4.96,-0.45 0,0 Q4.96,0.45 10.93,3.29"/></g></g><g class="arrow-line"><path class="connection real" stroke-dasharray="" d="  M290.67,162.19 C336.88,160.02 364.74,157.07 360.85,121.56" style="stroke: rgb(208, 2, 27); stroke-opacity: 1; stroke-width: 1px; fill: none; fill-opacity: 1;"/><g stroke="rgb(208,2,27)" stroke-opacity="1" transform="matrix(0.13191038271114255,0.9912616460516365,-0.9912616460516365,0.13191038271114255,360.64981040745397,119.91176585979917)" style="stroke: rgb(208, 2, 27); stroke-width: 1px;"><path d=" M10.93,-3.29 Q4.96,-0.45 0,0 Q4.96,0.45 10.93,3.29"/></g></g><g class="arrow-line"><path class="connection real" stroke-dasharray="" d="  M377.18,103.38 C423.15,101.22 426.47,119.24 428.52,145.36" style="stroke: rgb(126, 211, 33); stroke-opacity: 1; stroke-width: 1px; fill: none; fill-opacity: 1;"/><g stroke="rgb(126,211,33)" stroke-opacity="1" transform="matrix(-0.07602293535370315,-0.9971060692324597,0.9971060692324597,-0.07602293535370315,428.6415731913635,146.9696390726295)" style="stroke: rgb(126, 211, 33); stroke-width: 1px;"><path d=" M10.93,-3.29 Q4.96,-0.45 0,0 Q4.96,0.45 10.93,3.29"/></g></g><g class="arrow-line"><path class="connection real" stroke-dasharray="" d="  M412.11,163.5 C380.23,170.83 368.98,198.85 370.48,225.36" style="stroke: rgb(126, 211, 33); stroke-opacity: 1; stroke-width: 1px; fill: none; fill-opacity: 1;"/><g stroke="rgb(126,211,33)" stroke-opacity="1" transform="matrix(-0.07602293535370315,-0.9971060692324597,0.9971060692324597,-0.07602293535370315,370.5833282470703,226.9833374023438)" style="stroke: rgb(126, 211, 33); stroke-width: 1px;"><path d=" M10.93,-3.29 Q4.96,-0.45 0,0 Q4.96,0.45 10.93,3.29"/></g></g><g class="arrow-line"><path class="connection real" stroke-dasharray="" d="  M370.5,234.48 C338.62,241.81 339.48,266.96 341.46,293.37" style="stroke: rgb(126, 211, 33); stroke-opacity: 1; stroke-width: 1px; fill: none; fill-opacity: 1;"/><g stroke="rgb(126,211,33)" stroke-opacity="1" transform="matrix(-0.07602293535370315,-0.9971060692324597,0.9971060692324597,-0.07602293535370315,341.5833282470703,294.9833374023437)" style="stroke: rgb(126, 211, 33); stroke-width: 1px;"><path d=" M10.93,-3.29 Q4.96,-0.45 0,0 Q4.96,0.45 10.93,3.29"/></g></g><g class="arrow-line"><path class="connection real" stroke-dasharray="" d="  M370.59,306.31 C405.32,291.52 391.53,268.62 387.43,252.71" style="stroke: rgb(208, 2, 27); stroke-opacity: 1; stroke-width: 1px; fill: none; fill-opacity: 1;"/><g stroke="rgb(208,2,27)" stroke-opacity="1" transform="matrix(0.21081299374532908,0.9775264097036621,-0.9775264097036621,0.21081299374532908,387.0272270458185,251.0055142886731)" style="stroke: rgb(208, 2, 27); stroke-width: 1px;"><path d=" M10.93,-3.29 Q4.96,-0.45 0,0 Q4.96,0.45 10.93,3.29"/></g></g><g class="arrow-line"><path class="connection real" stroke-dasharray="" d="  M403.56,234.48 C442.23,225.37 449.24,266.82 443.08,289.29" style="stroke: rgb(126, 211, 33); stroke-opacity: 1; stroke-width: 1px; fill: none; fill-opacity: 1;"/><g stroke="rgb(126,211,33)" stroke-opacity="1" transform="matrix(0.30320159128856744,-0.9529264373707346,0.9529264373707346,0.30320159128856744,442.5833282470703,290.98333740234375)" style="stroke: rgb(126, 211, 33); stroke-width: 1px;"><path d=" M10.93,-3.29 Q4.96,-0.45 0,0 Q4.96,0.45 10.93,3.29"/></g></g><g class="arrow-line"><path class="connection real" stroke-dasharray="" d="  M402.67,226.19 C438.48,213.38 441.43,201.7 435.19,181.85" style="stroke: rgb(208, 2, 27); stroke-opacity: 1; stroke-width: 1px; fill: none; fill-opacity: 1;"/><g stroke="rgb(208,2,27)" stroke-opacity="1" transform="matrix(0.3161458239738065,0.9487106081329137,-0.9487106081329137,0.3161458239738065,434.5833282470703,179.98333740234375)" style="stroke: rgb(208, 2, 27); stroke-width: 1px;"><path d=" M10.93,-3.29 Q4.96,-0.45 0,0 Q4.96,0.45 10.93,3.29"/></g></g><g class="arrow-line"><path class="connection real" stroke-dasharray="" d="  M445.17,163.5 C491.14,161.33 505.99,209.98 489.6,234.98" style="stroke: rgb(126, 211, 33); stroke-opacity: 1; stroke-width: 1px; fill: none; fill-opacity: 1;"/><g stroke="rgb(126,211,33)" stroke-opacity="1" transform="matrix(0.592716258391068,-0.8054113464801032,0.8054113464801032,0.592716258391068,488.55616365223364,236.47657768225795)" style="stroke: rgb(126, 211, 33); stroke-width: 1px;"><path d=" M10.93,-3.29 Q4.96,-0.45 0,0 Q4.96,0.45 10.93,3.29"/></g></g><g class="arrow-line"><path class="connection real" stroke-dasharray="" d="  M472.03,253.01 C496.63,274.6 515.63,184.6 505.63,165.6 C495.88,147.08 466.17,146.61 444.3,153.09" style="stroke: rgb(208, 2, 27); stroke-opacity: 1; stroke-width: 1px; fill: none; fill-opacity: 1;"/><g stroke="rgb(208,2,27)" stroke-opacity="1" transform="matrix(0.9529264373707345,-0.30320159128856783,0.30320159128856783,0.9529264373707345,442.6333312988281,153.60000610351562)" style="stroke: rgb(208, 2, 27); stroke-width: 1px;"><path d=" M10.93,-3.29 Q4.96,-0.45 0,0 Q4.96,0.45 10.93,3.29"/></g></g><g class="arrow-line"><path class="connection real" stroke-dasharray="" d="  M434.63,148.6 C446.63,115.6 435.94,112.13 426.63,103.6 C417.56,95.28 396.42,90.32 374.98,96.57" style="stroke: rgb(208, 2, 27); stroke-opacity: 1; stroke-width: 1px; fill: none; fill-opacity: 1;"/><g stroke="rgb(208,2,27)" stroke-opacity="1" transform="matrix(0.9529264373707345,-0.30320159128856783,0.30320159128856783,0.9529264373707345,373.3280612817783,97.06831235276391)" style="stroke: rgb(208, 2, 27); stroke-width: 1px;"><path d=" M10.93,-3.29 Q4.96,-0.45 0,0 Q4.96,0.45 10.93,3.29"/></g></g><g class="arrow-line"><path class="connection real" stroke-dasharray="" d="  M366.63,85.6 C374.62,59.35 395.63,45.6 415.63,37.6 C434.93,29.88 445.85,27.75 462.77,33.9" style="stroke: rgb(208, 2, 27); stroke-opacity: 1; stroke-width: 1px; fill: none; fill-opacity: 1;"/><g stroke="rgb(208,2,27)" stroke-opacity="1" transform="matrix(-0.9320078692827986,-0.3624380382837015,0.3624380382837015,-0.9320078692827986,464.6333312988281,34.600006103515625)" style="stroke: rgb(208, 2, 27); stroke-width: 1px;"><path d=" M10.93,-3.29 Q4.96,-0.45 0,0 Q4.96,0.45 10.93,3.29"/></g></g><g class="arrow-line"><path class="connection real" stroke-dasharray="" d="  M490.9,47.85 C519.35,25.82 599.15,23.96 613.59,79.94" style="stroke: rgb(126, 211, 33); stroke-opacity: 1; stroke-width: 1px; fill: none; fill-opacity: 1;"/><g stroke="rgb(126,211,33)" stroke-opacity="1" transform="matrix(-0.22342024053238652,-0.9747222148491592,0.9747222148491592,-0.22342024053238652,614.0025685725964,81.65003779560095)" style="stroke: rgb(126, 211, 33); stroke-width: 1px;"><path d=" M10.93,-3.29 Q4.96,-0.45 0,0 Q4.96,0.45 10.93,3.29"/></g></g><g class="arrow-line"><path class="connection real" stroke-dasharray="" d="  M601.17,105.6 C569.49,110.55 531.93,121.38 549.97,166.92" style="stroke: rgb(126, 211, 33); stroke-opacity: 1; stroke-width: 1px; fill: none; fill-opacity: 1;"/><g stroke="rgb(126,211,33)" stroke-opacity="1" transform="matrix(-0.3830059038388148,-0.9237458945102882,0.9237458945102882,-0.3830059038388148,550.5314520039624,168.31124843490693)" style="stroke: rgb(126, 211, 33); stroke-width: 1px;"><path d=" M10.93,-3.29 Q4.96,-0.45 0,0 Q4.96,0.45 10.93,3.29"/></g></g><g class="arrow-line"><path class="connection real" stroke-dasharray="" d="  M551.87,174.6 C520.51,179.5 518.92,194.96 520.75,220.99" style="stroke: rgb(126, 211, 33); stroke-opacity: 1; stroke-width: 1px; fill: none; fill-opacity: 1;"/><g stroke="rgb(126,211,33)" stroke-opacity="1" transform="matrix(-0.07393443607558497,-0.997263104282007,0.997263104282007,-0.07393443607558497,520.8666687011719,222.60000610351562)" style="stroke: rgb(126, 211, 33); stroke-width: 1px;"><path d=" M10.93,-3.29 Q4.96,-0.45 0,0 Q4.96,0.45 10.93,3.29"/></g></g><g class="arrow-line"><path class="connection real" stroke-dasharray="" d="  M549.27,243.6 C567.27,227.6 567.27,231.6 573.27,222.6 C579.06,213.92 572.74,203.37 567.61,186.68" style="stroke: rgb(208, 2, 27); stroke-opacity: 1; stroke-width: 1px; fill: none; fill-opacity: 1;"/><g stroke="rgb(208,2,27)" stroke-opacity="1" transform="matrix(0.2813367109705065,0.9596091157655275,-0.9596091157655275,0.2813367109705065,567.0603886103775,184.840185041322)" style="stroke: rgb(208, 2, 27); stroke-width: 1px;"><path d=" M10.93,-3.29 Q4.96,-0.45 0,0 Q4.96,0.45 10.93,3.29"/></g></g><g class="arrow-line"><path class="connection real" stroke-dasharray="" d="  M581.27,158.6 C609.9,164.51 629.73,186.91 614.97,223.9" style="stroke: rgb(126, 211, 33); stroke-opacity: 1; stroke-width: 1px; fill: none; fill-opacity: 1;"/><g stroke="rgb(126,211,33)" stroke-opacity="1" transform="matrix(0.3894454807938583,-0.9210495195640898,0.9210495195640898,0.3894454807938583,614.2666625976562,225.60000610351557)" style="stroke: rgb(126, 211, 33); stroke-width: 1px;"><path d=" M10.93,-3.29 Q4.96,-0.45 0,0 Q4.96,0.45 10.93,3.29"/></g></g><g class="arrow-line"><path class="connection real" stroke-dasharray="" d="  M586.13,230.6 C549.69,239.47 540.41,266.76 543.96,302.94" style="stroke: rgb(126, 211, 33); stroke-opacity: 1; stroke-width: 1px; fill: none; fill-opacity: 1;"/><g stroke="rgb(126,211,33)" stroke-opacity="1" transform="matrix(-0.10747880469799438,-0.994207376024082,0.994207376024082,-0.10747880469799438,544.1333312988281,304.6000061035156)" style="stroke: rgb(126, 211, 33); stroke-width: 1px;"><path d=" M10.93,-3.29 Q4.96,-0.45 0,0 Q4.96,0.45 10.93,3.29"/></g></g><g class="arrow-line"><path class="connection real" stroke-dasharray="" d="  M576.59,314.31 C594.59,298.31 593.07,299.6 599.07,290.6 C604.86,281.92 605.25,271.37 600.59,254.68" style="stroke: rgb(208, 2, 27); stroke-opacity: 1; stroke-width: 1px; fill: none; fill-opacity: 1;"/><g stroke="rgb(208,2,27)" stroke-opacity="1" transform="matrix(0.2813367109705065,0.9596091157655275,-0.9596091157655275,0.2813367109705065,600.0603886103775,252.840185041322)" style="stroke: rgb(208, 2, 27); stroke-width: 1px;"><path d=" M10.93,-3.29 Q4.96,-0.45 0,0 Q4.96,0.45 10.93,3.29"/></g></g><g class="arrow-line"><path class="connection real" stroke-dasharray="" d="  M616.59,236.31 C635.68,232.71 670.12,290 658.48,308.04" style="stroke: rgb(126, 211, 33); stroke-opacity: 1; stroke-width: 1px; fill: none; fill-opacity: 1;"/><g stroke="rgb(126,211,33)" stroke-opacity="1" transform="matrix(0.6839107002186179,-0.7295657298191026,0.7295657298191026,0.6839107002186179,657.2666625976562,309.6000061035156)" style="stroke: rgb(126, 211, 33); stroke-width: 1px;"><path d=" M10.93,-3.29 Q4.96,-0.45 0,0 Q4.96,0.45 10.93,3.29"/></g></g><g class="arrow-line"><path class="connection real" stroke-dasharray="" d="  M655.27,322.6 C673.27,306.6 696.27,275.6 692.27,257.6 C688.39,240.14 638.4,228.33 617.15,230.37" style="stroke: rgb(208, 2, 27); stroke-opacity: 1; stroke-width: 1px; fill: none; fill-opacity: 1;"/><g stroke="rgb(208,2,27)" stroke-opacity="1" transform="matrix(0.9889383349666098,-0.14832723833965722,0.14832723833965722,0.9889383349666098,615.2666625976562,230.60000610351562)" style="stroke: rgb(208, 2, 27); stroke-width: 1px;"><path d=" M10.93,-3.29 Q4.96,-0.45 0,0 Q4.96,0.45 10.93,3.29"/></g></g><g class="arrow-line"><path class="connection real" stroke-dasharray="" d="  M615.27,230.6 C633.27,214.6 641.27,211.6 637.27,193.6 C633.39,176.14 605.98,171.85 586.09,174.35" style="stroke: rgb(208, 2, 27); stroke-opacity: 1; stroke-width: 1px; fill: none; fill-opacity: 1;"/><g stroke="rgb(208,2,27)" stroke-opacity="1" transform="matrix(0.9889383349666098,-0.14832723833965722,0.14832723833965722,0.9889383349666098,584.2666625976562,174.60000610351562)" style="stroke: rgb(208, 2, 27); stroke-width: 1px;"><path d=" M10.93,-3.29 Q4.96,-0.45 0,0 Q4.96,0.45 10.93,3.29"/></g></g><g class="arrow-line"><path class="connection real" stroke-dasharray="" d="  M574.8,153.2 C593.33,155.15 611.85,139.99 613.88,116.53" style="stroke: rgb(208, 2, 27); stroke-opacity: 1; stroke-width: 1px; fill: none; fill-opacity: 1;"/><g stroke="rgb(208,2,27)" stroke-opacity="1" transform="matrix(-0.04902409360756123,0.9987975962355722,-0.9987975962355722,-0.04902409360756123,614.0025685725964,114.70791100843127)" style="stroke: rgb(208, 2, 27); stroke-width: 1px;"><path d=" M10.93,-3.29 Q4.96,-0.45 0,0 Q4.96,0.45 10.93,3.29"/></g></g><g class="arrow-line"><path class="connection real" stroke-dasharray="" d="  M622.9,82.85 C658.14,71.32 707.5,117.27 681.32,154.09" style="stroke: rgb(126, 211, 33); stroke-opacity: 1; stroke-width: 1px; fill: none; fill-opacity: 1;"/><g stroke="rgb(126,211,33)" stroke-opacity="1" transform="matrix(0.6034863603024762,-0.7973733209287039,0.7973733209287039,0.6034863603024762,680.5,155.1999969482422)" style="stroke: rgb(126, 211, 33); stroke-width: 1px;"><path d=" M10.93,-3.29 Q4.96,-0.45 0,0 Q4.96,0.45 10.93,3.29"/></g></g><g class="arrow-line"><path class="connection real" stroke-dasharray="" d="  M681.76,163.01 C697.96,157.71 717.82,113.1 705,91.2 C692.56,69.96 634.63,64.52 623.77,81.23" style="stroke: rgb(208, 2, 27); stroke-opacity: 1; stroke-width: 1px; fill: none; fill-opacity: 1;"/><g stroke="rgb(208,2,27)" stroke-opacity="1" transform="matrix(0.39858900567539723,-0.9171296552585672,0.9171296552585672,0.39858900567539723,622.8978308660052,82.84560225582925)" style="stroke: rgb(208, 2, 27); stroke-width: 1px;"><path d=" M10.93,-3.29 Q4.96,-0.45 0,0 Q4.96,0.45 10.93,3.29"/></g></g><g class="arrow-line"><path class="connection real" stroke-dasharray="" d="  M614,81.65 C630.2,76.35 629,43.2 591,25.2 C554.14,7.74 498.46,14.74 487.76,33.11" style="stroke: rgb(208, 2, 27); stroke-opacity: 1; stroke-width: 1px; fill: none; fill-opacity: 1;"/><g stroke="rgb(208,2,27)" stroke-opacity="1" transform="matrix(0.3812317342691485,-0.9244795102035184,0.9244795102035184,0.3812317342691485,486.89783086600517,34.84560225582919)" style="stroke: rgb(208, 2, 27); stroke-width: 1px;"><path d=" M10.93,-3.29 Q4.96,-0.45 0,0 Q4.96,0.45 10.93,3.29"/></g></g><g/></g><g/><g/><g/></svg>
        <svg xmlns="http://www.w3.org/2000/svg" xmlns:xlink="http://www.w3.org/1999/xlink" width="964" height="393.5333251953125" style="width:964px;height:393.5333251953125px;font-family:Asana-Math, Asana;background:#FFF;"><g><g><g><text x="470.10003662109375" y="39.15000915527344" style="white-space:pre;stroke:none;fill:rgb(0,0,0);fill-opacity:1;font-size:15px;font-family:Arial, Helvetica, sans-serif;font-weight:400;font-style:normal;dominant-baseline:text-before-edge;text-decoration:rgb(0, 0, 0);">-</text></g></g></g><g><g><g><text x="359.10003662109375" y="95.15000915527344" style="white-space:pre;stroke:none;fill:rgb(0,0,0);fill-opacity:1;font-size:15px;font-family:Arial, Helvetica, sans-serif;font-weight:400;font-style:normal;dominant-baseline:text-before-edge;text-decoration:rgb(0, 0, 0);">/</text></g></g></g><g><g><g><text x="611.1000366210938" y="90.15000915527344" style="white-space:pre;stroke:none;fill:rgb(0,0,0);fill-opacity:1;font-size:15px;font-family:Arial, Helvetica, sans-serif;font-weight:400;font-style:normal;dominant-baseline:text-before-edge;text-decoration:rgb(0, 0, 0);">+</text></g></g></g><g><g><g><text x="563.1000366210938" y="159.15000915527344" style="white-space:pre;stroke:none;fill:rgb(0,0,0);fill-opacity:1;font-size:15px;font-family:Arial, Helvetica, sans-serif;font-weight:400;font-style:normal;dominant-baseline:text-before-edge;text-decoration:rgb(0, 0, 0);">x</text></g></g></g><g><g><g><text x="662.1000366210938" y="154.15000915527344" style="white-space:pre;stroke:none;fill:rgb(0,0,0);fill-opacity:1;font-size:15px;font-family:Arial, Helvetica, sans-serif;font-weight:400;font-style:normal;dominant-baseline:text-before-edge;text-decoration:rgb(0, 0, 0);">6</text></g></g></g><g><g><g><text x="268.10003662109375" y="154.15000915527344" style="white-space:pre;stroke:none;fill:rgb(0,0,0);fill-opacity:1;font-size:15px;font-family:Arial, Helvetica, sans-serif;font-weight:400;font-style:normal;dominant-baseline:text-before-edge;text-decoration:rgb(0, 0, 0);">x</text></g></g></g><g><g><g><text x="423.10003662109375" y="154.15000915527344" style="white-space:pre;stroke:none;fill:rgb(0,0,0);fill-opacity:1;font-size:15px;font-family:Arial, Helvetica, sans-serif;font-weight:400;font-style:normal;dominant-baseline:text-before-edge;text-decoration:rgb(0, 0, 0);">+</text></g></g></g><g><g><g><text x="211.10003662109375" y="225.14999389648438" style="white-space:pre;stroke:none;fill:rgb(0,0,0);fill-opacity:1;font-size:15px;font-family:Arial, Helvetica, sans-serif;font-weight:400;font-style:normal;dominant-baseline:text-before-edge;text-decoration:rgb(0, 0, 0);">+</text></g></g></g><g><g><g><text x="322.10003662109375" y="225.14999389648438" style="white-space:pre;stroke:none;fill:rgb(0,0,0);fill-opacity:1;font-size:15px;font-family:Arial, Helvetica, sans-serif;font-weight:400;font-style:normal;dominant-baseline:text-before-edge;text-decoration:rgb(0, 0, 0);">3</text></g></g></g><g><g><g><text x="382.10003662109375" y="226.14999389648438" style="white-space:pre;stroke:none;fill:rgb(0,0,0);fill-opacity:1;font-size:15px;font-family:Arial, Helvetica, sans-serif;font-weight:400;font-style:normal;dominant-baseline:text-before-edge;text-decoration:rgb(0, 0, 0);">-</text></g></g></g><g><g><g><text x="469.10003662109375" y="227.14999389648438" style="white-space:pre;stroke:none;fill:rgb(0,0,0);fill-opacity:1;font-size:15px;font-family:Arial, Helvetica, sans-serif;font-weight:400;font-style:normal;dominant-baseline:text-before-edge;text-decoration:rgb(0, 0, 0);">2</text></g></g></g><g><g><g><text x="530.1000366210938" y="226.14999389648438" style="white-space:pre;stroke:none;fill:rgb(0,0,0);fill-opacity:1;font-size:15px;font-family:Arial, Helvetica, sans-serif;font-weight:400;font-style:normal;dominant-baseline:text-before-edge;text-decoration:rgb(0, 0, 0);">3</text></g></g></g><g><g><g><text x="599.1000366210938" y="226.14999389648438" style="white-space:pre;stroke:none;fill:rgb(0,0,0);fill-opacity:1;font-size:15px;font-family:Arial, Helvetica, sans-serif;font-weight:400;font-style:normal;dominant-baseline:text-before-edge;text-decoration:rgb(0, 0, 0);">-</text></g></g></g><g><g><g><text x="169.10003662109375" y="289.1499938964844" style="white-space:pre;stroke:none;fill:rgb(0,0,0);fill-opacity:1;font-size:15px;font-family:Arial, Helvetica, sans-serif;font-weight:400;font-style:normal;dominant-baseline:text-before-edge;text-decoration:rgb(0, 0, 0);">3</text></g></g></g><g><g><g><text x="251.10003662109375" y="289.1499938964844" style="white-space:pre;stroke:none;fill:rgb(0,0,0);fill-opacity:1;font-size:15px;font-family:Arial, Helvetica, sans-serif;font-weight:400;font-style:normal;dominant-baseline:text-before-edge;text-decoration:rgb(0, 0, 0);">1</text></g></g></g><g><g><g><text x="348.10003662109375" y="296.1499938964844" style="white-space:pre;stroke:none;fill:rgb(0,0,0);fill-opacity:1;font-size:15px;font-family:Arial, Helvetica, sans-serif;font-weight:400;font-style:normal;dominant-baseline:text-before-edge;text-decoration:rgb(0, 0, 0);">9</text></g></g></g><g><g><g><text x="433.10003662109375" y="300.1499938964844" style="white-space:pre;stroke:none;fill:rgb(0,0,0);fill-opacity:1;font-size:15px;font-family:Arial, Helvetica, sans-serif;font-weight:400;font-style:normal;dominant-baseline:text-before-edge;text-decoration:rgb(0, 0, 0);">5</text></g></g></g><g><g><g><text x="556.1000366210938" y="305.1499938964844" style="white-space:pre;stroke:none;fill:rgb(0,0,0);fill-opacity:1;font-size:15px;font-family:Arial, Helvetica, sans-serif;font-weight:400;font-style:normal;dominant-baseline:text-before-edge;text-decoration:rgb(0, 0, 0);">7</text></g></g></g><g><g><g><text x="638.1000366210938" y="307.1499938964844" style="white-space:pre;stroke:none;fill:rgb(0,0,0);fill-opacity:1;font-size:15px;font-family:Arial, Helvetica, sans-serif;font-weight:400;font-style:normal;dominant-baseline:text-before-edge;text-decoration:rgb(0, 0, 0);">4</text></g></g></g><g><g><g><text x="383.76666259765625" y="2.45001220703125" style="white-space:pre;stroke:none;fill:rgb(65,117,5);fill-opacity:1;font-size:15px;font-family:Arial, Helvetica, sans-serif;font-weight:400;font-style:normal;dominant-baseline:text-before-edge;text-decoration:rgb(65, 117, 5);">1</text></g></g></g><g><g><g><text x="289.76666259765625" y="53.45001220703125" style="white-space:pre;stroke:none;fill:rgb(65,117,5);fill-opacity:1;font-size:15px;font-family:Arial, Helvetica, sans-serif;font-weight:400;font-style:normal;dominant-baseline:text-before-edge;text-decoration:rgb(65, 117, 5);">2</text></g></g></g><g><g><g><text x="215.76666259765625" y="119.45001220703125" style="white-space:pre;stroke:none;fill:rgb(65,117,5);fill-opacity:1;font-size:15px;font-family:Arial, Helvetica, sans-serif;font-weight:400;font-style:normal;dominant-baseline:text-before-edge;text-decoration:rgb(65, 117, 5);">3</text></g></g></g><g><g><g><text x="146.76666259765625" y="201.45001220703125" style="white-space:pre;stroke:none;fill:rgb(65,117,5);fill-opacity:1;font-size:15px;font-family:Arial, Helvetica, sans-serif;font-weight:400;font-style:normal;dominant-baseline:text-before-edge;text-decoration:rgb(65, 117, 5);">4</text></g></g></g><g><g><g><text x="271.76666259765625" y="238.45001220703125" style="white-space:pre;stroke:none;fill:rgb(65,117,5);fill-opacity:1;font-size:15px;font-family:Arial, Helvetica, sans-serif;font-weight:400;font-style:normal;dominant-baseline:text-before-edge;text-decoration:rgb(65, 117, 5);">5</text></g></g></g><g><g><g><text x="329.76666259765625" y="166.45001220703125" style="white-space:pre;stroke:none;fill:rgb(65,117,5);fill-opacity:1;font-size:15px;font-family:Arial, Helvetica, sans-serif;font-weight:400;font-style:normal;dominant-baseline:text-before-edge;text-decoration:rgb(65, 117, 5);">6</text></g></g></g><g><g><g><text x="414.76666259765625" y="92.45001220703125" style="white-space:pre;stroke:none;fill:rgb(65,117,5);fill-opacity:1;font-size:15px;font-family:Arial, Helvetica, sans-serif;font-weight:400;font-style:normal;dominant-baseline:text-before-edge;text-decoration:rgb(65, 117, 5);">7</text></g></g></g><g><g><g><text x="396.76666259765625" y="169.45001220703125" style="white-space:pre;stroke:none;fill:rgb(65,117,5);fill-opacity:1;font-size:15px;font-family:Arial, Helvetica, sans-serif;font-weight:400;font-style:normal;dominant-baseline:text-before-edge;text-decoration:rgb(65, 117, 5);">8</text></g></g></g><g><g><g><text x="355.76666259765625" y="237.45001220703125" style="white-space:pre;stroke:none;fill:rgb(65,117,5);fill-opacity:1;font-size:15px;font-family:Arial, Helvetica, sans-serif;font-weight:400;font-style:normal;dominant-baseline:text-before-edge;text-decoration:rgb(65, 117, 5);">9</text></g></g></g><g><g><g><text x="424.76666259765625" y="252.45001220703125" style="white-space:pre;stroke:none;fill:rgb(65,117,5);fill-opacity:1;font-size:15px;font-family:Arial, Helvetica, sans-serif;font-weight:400;font-style:normal;dominant-baseline:text-before-edge;text-decoration:rgb(65, 117, 5);">10</text></g></g></g><g><g><g><text x="472.76666259765625" y="160.45001220703125" style="white-space:pre;stroke:none;fill:rgb(65,117,5);fill-opacity:1;font-size:15px;font-family:Arial, Helvetica, sans-serif;font-weight:400;font-style:normal;dominant-baseline:text-before-edge;text-decoration:rgb(65, 117, 5);">11</text></g></g></g><g><g><g><text x="550.7666625976562" y="38.45001220703125" style="white-space:pre;stroke:none;fill:rgb(65,117,5);fill-opacity:1;font-size:15px;font-family:Arial, Helvetica, sans-serif;font-weight:400;font-style:normal;dominant-baseline:text-before-edge;text-decoration:rgb(65, 117, 5);">12</text></g></g></g><g><g><g><text x="542.7666625976562" y="102.45001220703125" style="white-space:pre;stroke:none;fill:rgb(65,117,5);fill-opacity:1;font-size:15px;font-family:Arial, Helvetica, sans-serif;font-weight:400;font-style:normal;dominant-baseline:text-before-edge;text-decoration:rgb(65, 117, 5);">13</text></g></g></g><g><g><g><text x="522.7666625976562" y="182.45001220703125" style="white-space:pre;stroke:none;fill:rgb(65,117,5);fill-opacity:1;font-size:15px;font-family:Arial, Helvetica, sans-serif;font-weight:400;font-style:normal;dominant-baseline:text-before-edge;text-decoration:rgb(65, 117, 5);">14</text></g></g></g><g><g><g><text x="550.7666625976562" y="256.45001220703125" style="white-space:pre;stroke:none;fill:rgb(65,117,5);fill-opacity:1;font-size:15px;font-family:Arial, Helvetica, sans-serif;font-weight:400;font-style:normal;dominant-baseline:text-before-edge;text-decoration:rgb(65, 117, 5);">16</text></g></g></g><g><g><g><text x="600.7666625976562" y="156.45001220703125" style="white-space:pre;stroke:none;fill:rgb(65,117,5);fill-opacity:1;font-size:15px;font-family:Arial, Helvetica, sans-serif;font-weight:400;font-style:normal;dominant-baseline:text-before-edge;text-decoration:rgb(65, 117, 5);">15</text></g></g></g><g><g><g><text x="649.7666625976562" y="255.45001220703125" style="white-space:pre;stroke:none;fill:rgb(65,117,5);fill-opacity:1;font-size:15px;font-family:Arial, Helvetica, sans-serif;font-weight:400;font-style:normal;dominant-baseline:text-before-edge;text-decoration:rgb(65, 117, 5);">17</text></g></g></g><g><g><g><text x="658.7666625976562" y="98.45001220703125" style="white-space:pre;stroke:none;fill:rgb(65,117,5);fill-opacity:1;font-size:15px;font-family:Arial, Helvetica, sans-serif;font-weight:400;font-style:normal;dominant-baseline:text-before-edge;text-decoration:rgb(65, 117, 5);">18</text></g></g></g><g><g><g><text x="313.76666259765625" y="353.45001220703125" style="white-space:pre;stroke:none;fill:rgb(0,0,0);fill-opacity:1;font-size:15px;font-family:Arial, Helvetica, sans-serif;font-weight:400;font-style:normal;dominant-baseline:text-before-edge;text-decoration:rgb(0, 0, 0);">[-, /, x, +, 3, 1, 3, +, -, 9, 5, 2, +, x, 3, -, 7, 4, 6]</text></g></g></g></svg>
</svg>
